<?xml version="1.0" encoding="UTF-8" standalone="no"?>
<!DOCTYPE svg PUBLIC "-//W3C//DTD SVG 1.1//EN" "http://www.w3.org/Graphics/SVG/1.1/DTD/svg11.dtd">
<svg width="100%" height="100%" viewBox="0 0 86 48" version="1.1" xmlns="http://www.w3.org/2000/svg" xmlns:xlink="http://www.w3.org/1999/xlink" xml:space="preserve" xmlns:serif="http://www.serif.com/" style="fill-rule:evenodd;clip-rule:evenodd;stroke-linecap:round;stroke-linejoin:round;stroke-miterlimit:1.5;">
    <g transform="matrix(1,0,0,1,-1166.683966,-3009.213046)">
        <g transform="matrix(1,0,0,1,18.879384,250)">
            <g transform="matrix(1,0,0,1,612.673111,5.106631)">
                <g transform="matrix(1,0,0,1,-35.260773,9.562244)">
                    <g transform="matrix(0.251672,0,0,0.251672,475.190173,2071.610105)">
                        <path d="M501.382,2768.32L683.662,2768.32" style="fill:none;stroke:black;stroke-width:16.56px;"/>
                    </g>
                    <g transform="matrix(1,0,-0,1,-32.024151,0.322726)">
                        <path d="M666.205,2751.359L682.843,2767.997" style="fill:none;stroke:black;stroke-width:4.17px;"/>
                    </g>
                    <g transform="matrix(1,-0,-0,-1,-32.024151,5536.317274)">
                        <path d="M666.205,2751.359L682.843,2767.997" style="fill:none;stroke:black;stroke-width:4.17px;"/>
                    </g>
                </g>
            </g>
            <g transform="matrix(1,0,0,1,501.985991,-323.695131)">
                <g transform="matrix(-0.603682,0,0,0.84452,1082.333463,629.952396)">
                    <path d="M645.333,2932.708C681.735,2932.708 694.869,2932.945 719.637,2958.394" style="fill:none;stroke:black;stroke-width:5.68px;"/>
                </g>
                <g transform="matrix(-0.603682,0,0,-0.84452,1082.333463,5583.415616)">
                    <path d="M645.333,2932.708C681.735,2932.708 694.869,2932.945 719.637,2958.394" style="fill:none;stroke:black;stroke-width:5.68px;"/>
                </g>
                <g transform="matrix(0,0.355548,-1,0,3701.869672,2863.36874)">
                    <path d="M637.542,2972.556L731.134,2972.556" style="fill:none;stroke:black;stroke-width:5.55px;"/>
                </g>
            </g>
        </g>
    </g>
</svg>
