<?xml version="1.0" encoding="UTF-8" standalone="no"?>
<!DOCTYPE svg PUBLIC "-//W3C//DTD SVG 1.1//EN" "http://www.w3.org/Graphics/SVG/1.1/DTD/svg11.dtd">
<svg width="100%" height="100%" viewBox="0 0 1000 1000" version="1.1" xmlns="http://www.w3.org/2000/svg" xmlns:xlink="http://www.w3.org/1999/xlink" xml:space="preserve" xmlns:serif="http://www.serif.com/" style="fill-rule:evenodd;clip-rule:evenodd;stroke-linecap:round;stroke-linejoin:round;stroke-miterlimit:1.5;">
    <g transform="matrix(0.95574,0,0,0.95574,-2.922148,-2.922148)">
        <circle cx="526.212" cy="526.212" r="473.788" style="fill:white;fill-opacity:0;stroke:black;stroke-width:4.36px;"/>
    </g>
    <g transform="matrix(0.816044,0,0,0.816044,70.587457,70.587457)">
        <circle cx="526.212" cy="526.212" r="473.788" style="fill:white;fill-opacity:0;stroke:black;stroke-width:5.11px;"/>
    </g>
    <g transform="matrix(1.111618,0,0,1.111618,-2260.185699,-2668.79729)">
        <g transform="matrix(1,0,0,1,1982.308552,787.438447)">
            <path d="M497.383,1923.843C497.383,1923.843 467.534,1947.129 467.534,2000C467.534,2052.871 533.793,2060.958 533.793,2128.381C533.793,2166.44 497.383,2202.515 497.383,2202.515" style="fill:none;stroke:black;stroke-width:3.75px;"/>
            <g transform="matrix(1.238078,0,0,1.238078,-107.183679,-505.034158)">
                <path d="M553.063,2017.513C553.063,2017.513 552.039,2003.151 538.774,2003.281C535.3,2003.315 529.754,2006.103 524.607,2012.203C505.532,2034.815 475.313,2070.45 457.161,2090.898C452.115,2096.582 446.538,2098.837 443.206,2098.849C428.098,2098.907 428.864,2084.671 428.864,2084.671" style="fill:none;stroke:black;stroke-width:3.03px;"/>
            </g>
            <g transform="matrix(1.238078,0,0,1.238078,-107.183679,-455.605986)">
                <path d="M553.063,2017.513C553.063,2017.513 552.039,2003.151 538.774,2003.281C535.3,2003.315 529.754,2006.103 524.607,2012.203C505.532,2034.815 475.313,2070.45 457.161,2090.898C452.115,2096.582 446.538,2098.837 443.206,2098.849C428.098,2098.907 428.864,2084.671 428.864,2084.671" style="fill:none;stroke:black;stroke-width:3.03px;"/>
            </g>
        </g>
        <g>
            <g transform="matrix(-1,-0,0,-1,3935.498881,3640.321042)">
                <path d="M1375.536,739.548L1375.536,798.075" style="fill:none;stroke:black;stroke-width:3.75px;"/>
            </g>
            <g transform="matrix(0.987191,0.159546,0.159546,-0.987191,1082.85561,3414.46785)">
                <path d="M1337.637,768.812L1355.228,798.075" style="fill:none;stroke:black;stroke-width:3.75px;"/>
            </g>
            <g transform="matrix(-0.987191,0.159546,-0.159546,-0.987191,4037.11565,3414.46785)">
                <path d="M1337.637,768.812L1355.228,798.075" style="fill:none;stroke:black;stroke-width:3.75px;"/>
            </g>
        </g>
        <g transform="matrix(-1,0,-0,-1,4966.069164,5692.863656)">
            <g transform="matrix(-1,-0,0,-1,3935.498881,3640.321042)">
                <path d="M1375.536,739.548L1375.536,798.075" style="fill:none;stroke:black;stroke-width:3.75px;"/>
            </g>
            <g transform="matrix(0.987191,0.159546,0.159546,-0.987191,1082.85561,3414.46785)">
                <path d="M1337.637,768.812L1355.228,798.075" style="fill:none;stroke:black;stroke-width:3.75px;"/>
            </g>
            <g transform="matrix(-0.987191,0.159546,-0.159546,-0.987191,4037.11565,3414.46785)">
                <path d="M1337.637,768.812L1355.228,798.075" style="fill:none;stroke:black;stroke-width:3.75px;"/>
            </g>
        </g>
    </g>
    <g transform="matrix(0.818109,0,0,0.818109,-59.703863,-2907.301886)">
        <g transform="matrix(1,0,0,1,614.826767,2494.225078)">
            <g transform="matrix(0,0.107327,-0.367151,0,554.839745,1105.11858)">
                <path d="M486.89,1011.989C602.099,1011.989 695.634,1059.416 695.634,1090.387C695.634,1121.358 602.099,1146.503 486.89,1146.503" style="fill-opacity:0;stroke:black;stroke-width:18.83px;"/>
            </g>
            <g transform="matrix(-0,-0.107327,0.367151,-0,-250.10733,1237.035492)">
                <path d="M486.89,1011.989C602.099,1011.989 695.634,1059.416 695.634,1090.387C695.634,1121.358 602.099,1146.503 486.89,1146.503" style="fill-opacity:0;stroke:black;stroke-width:18.83px;"/>
            </g>
        </g>
        <g transform="matrix(1,0,0,1,436.498523,2494.225078)">
            <g transform="matrix(0,0.107327,-0.367151,0,554.839745,1105.11858)">
                <path d="M486.89,1011.989C602.099,1011.989 695.634,1059.416 695.634,1090.387C695.634,1121.358 602.099,1146.503 486.89,1146.503" style="fill-opacity:0;stroke:black;stroke-width:18.83px;"/>
            </g>
            <g transform="matrix(-0,-0.107327,0.367151,-0,-250.10733,1237.035492)">
                <path d="M486.89,1011.989C602.099,1011.989 695.634,1059.416 695.634,1090.387C695.634,1121.358 602.099,1146.503 486.89,1146.503" style="fill-opacity:0;stroke:black;stroke-width:18.83px;"/>
            </g>
        </g>
        <g transform="matrix(1,0,0,1,386.991396,1053.015505)">
            <g transform="matrix(1.996277,0,0,1.996277,-2191.733768,1646.708669)">
                <circle cx="1246.763" cy="477.27" r="4.103" style="stroke:black;stroke-width:2.55px;"/>
            </g>
            <path d="M136.717,2625.989C136.717,2625.989 179.187,2580.211 210.479,2580.211C247.983,2580.211 257.911,2625.989 295.415,2625.989C332.919,2625.989 346.912,2580.763 379.248,2580.763C411.585,2580.763 457.586,2625.989 457.586,2625.989" style="fill:none;stroke:black;stroke-width:5.09px;"/>
        </g>
    </g>
    <g transform="matrix(-0.818109,-0,0,-0.818109,1059.703863,3909.194209)">
        <g transform="matrix(1,0,0,1,614.826767,2494.225078)">
            <g transform="matrix(0,0.107327,-0.367151,0,554.839745,1105.11858)">
                <path d="M486.89,1011.989C602.099,1011.989 695.634,1059.416 695.634,1090.387C695.634,1121.358 602.099,1146.503 486.89,1146.503" style="fill-opacity:0;stroke:black;stroke-width:18.83px;"/>
            </g>
            <g transform="matrix(-0,-0.107327,0.367151,-0,-250.10733,1237.035492)">
                <path d="M486.89,1011.989C602.099,1011.989 695.634,1059.416 695.634,1090.387C695.634,1121.358 602.099,1146.503 486.89,1146.503" style="fill-opacity:0;stroke:black;stroke-width:18.83px;"/>
            </g>
        </g>
        <g transform="matrix(1,0,0,1,436.498523,2494.225078)">
            <g transform="matrix(0,0.107327,-0.367151,0,554.839745,1105.11858)">
                <path d="M486.89,1011.989C602.099,1011.989 695.634,1059.416 695.634,1090.387C695.634,1121.358 602.099,1146.503 486.89,1146.503" style="fill-opacity:0;stroke:black;stroke-width:18.83px;"/>
            </g>
            <g transform="matrix(-0,-0.107327,0.367151,-0,-250.10733,1237.035492)">
                <path d="M486.89,1011.989C602.099,1011.989 695.634,1059.416 695.634,1090.387C695.634,1121.358 602.099,1146.503 486.89,1146.503" style="fill-opacity:0;stroke:black;stroke-width:18.83px;"/>
            </g>
        </g>
        <g transform="matrix(1,0,0,1,386.991396,1053.015505)">
            <g transform="matrix(1.996277,0,0,1.996277,-2191.733768,1646.708669)">
                <circle cx="1246.763" cy="477.27" r="4.103" style="stroke:black;stroke-width:2.55px;"/>
            </g>
            <path d="M136.717,2625.989C136.717,2625.989 179.187,2580.211 210.479,2580.211C247.983,2580.211 257.911,2625.989 295.415,2625.989C332.919,2625.989 346.912,2580.763 379.248,2580.763C411.585,2580.763 457.586,2625.989 457.586,2625.989" style="fill:none;stroke:black;stroke-width:5.09px;"/>
        </g>
    </g>
    <g transform="matrix(0,0.818109,-0.818109,0,3904.76499,-59.274644)">
        <g transform="matrix(1,0,0,1,614.826767,2494.225078)">
            <g transform="matrix(0,0.107327,-0.367151,0,554.839745,1105.11858)">
                <path d="M486.89,1011.989C602.099,1011.989 695.634,1059.416 695.634,1090.387C695.634,1121.358 602.099,1146.503 486.89,1146.503" style="fill-opacity:0;stroke:black;stroke-width:18.83px;"/>
            </g>
            <g transform="matrix(-0,-0.107327,0.367151,-0,-250.10733,1237.035492)">
                <path d="M486.89,1011.989C602.099,1011.989 695.634,1059.416 695.634,1090.387C695.634,1121.358 602.099,1146.503 486.89,1146.503" style="fill-opacity:0;stroke:black;stroke-width:18.83px;"/>
            </g>
        </g>
        <g transform="matrix(1,0,0,1,436.498523,2494.225078)">
            <g transform="matrix(0,0.107327,-0.367151,0,554.839745,1105.11858)">
                <path d="M486.89,1011.989C602.099,1011.989 695.634,1059.416 695.634,1090.387C695.634,1121.358 602.099,1146.503 486.89,1146.503" style="fill-opacity:0;stroke:black;stroke-width:18.83px;"/>
            </g>
            <g transform="matrix(-0,-0.107327,0.367151,-0,-250.10733,1237.035492)">
                <path d="M486.89,1011.989C602.099,1011.989 695.634,1059.416 695.634,1090.387C695.634,1121.358 602.099,1146.503 486.89,1146.503" style="fill-opacity:0;stroke:black;stroke-width:18.83px;"/>
            </g>
        </g>
        <g transform="matrix(1,0,0,1,386.991396,1053.015505)">
            <g transform="matrix(1.996277,0,0,1.996277,-2191.733768,1646.708669)">
                <circle cx="1246.763" cy="477.27" r="4.103" style="stroke:black;stroke-width:2.55px;"/>
            </g>
            <path d="M136.717,2625.989C136.717,2625.989 179.187,2580.211 210.479,2580.211C247.983,2580.211 257.911,2625.989 295.415,2625.989C332.919,2625.989 346.912,2580.763 379.248,2580.763C411.585,2580.763 457.586,2625.989 457.586,2625.989" style="fill:none;stroke:black;stroke-width:5.09px;"/>
        </g>
    </g>
    <g transform="matrix(0,-0.818109,0.818109,0,-2906.699459,1060.133082)">
        <g transform="matrix(1,0,0,1,614.826767,2494.225078)">
            <g transform="matrix(0,0.107327,-0.367151,0,554.839745,1105.11858)">
                <path d="M486.89,1011.989C602.099,1011.989 695.634,1059.416 695.634,1090.387C695.634,1121.358 602.099,1146.503 486.89,1146.503" style="fill-opacity:0;stroke:black;stroke-width:18.83px;"/>
            </g>
            <g transform="matrix(-0,-0.107327,0.367151,-0,-250.10733,1237.035492)">
                <path d="M486.89,1011.989C602.099,1011.989 695.634,1059.416 695.634,1090.387C695.634,1121.358 602.099,1146.503 486.89,1146.503" style="fill-opacity:0;stroke:black;stroke-width:18.83px;"/>
            </g>
        </g>
        <g transform="matrix(1,0,0,1,436.498523,2494.225078)">
            <g transform="matrix(0,0.107327,-0.367151,0,554.839745,1105.11858)">
                <path d="M486.89,1011.989C602.099,1011.989 695.634,1059.416 695.634,1090.387C695.634,1121.358 602.099,1146.503 486.89,1146.503" style="fill-opacity:0;stroke:black;stroke-width:18.83px;"/>
            </g>
            <g transform="matrix(-0,-0.107327,0.367151,-0,-250.10733,1237.035492)">
                <path d="M486.89,1011.989C602.099,1011.989 695.634,1059.416 695.634,1090.387C695.634,1121.358 602.099,1146.503 486.89,1146.503" style="fill-opacity:0;stroke:black;stroke-width:18.83px;"/>
            </g>
        </g>
        <g transform="matrix(1,0,0,1,386.991396,1053.015505)">
            <g transform="matrix(1.996277,0,0,1.996277,-2191.733768,1646.708669)">
                <circle cx="1246.763" cy="477.27" r="4.103" style="stroke:black;stroke-width:2.55px;"/>
            </g>
            <path d="M136.717,2625.989C136.717,2625.989 179.187,2580.211 210.479,2580.211C247.983,2580.211 257.911,2625.989 295.415,2625.989C332.919,2625.989 346.912,2580.763 379.248,2580.763C411.585,2580.763 457.586,2625.989 457.586,2625.989" style="fill:none;stroke:black;stroke-width:5.09px;"/>
        </g>
    </g>
    <g transform="matrix(-1.054968,1.054968,-1.054968,-1.054968,4467.167879,2742.684902)">
        <g transform="matrix(0.815803,0,0,0.84452,200.570148,391.589137)">
            <path d="M543.065,3004.826L509.291,3038.6" style="fill:none;stroke:black;stroke-width:3.36px;"/>
        </g>
        <g transform="matrix(0.815803,0,0,0.84452,214.105153,391.589137)">
            <path d="M543.065,3004.826L509.291,3038.6" style="fill:none;stroke:black;stroke-width:3.36px;"/>
        </g>
        <g transform="matrix(0.603682,0,0,0.84452,254.342652,466.796502)">
            <path d="M645.333,2932.708C681.735,2932.708 694.869,2932.945 719.637,2958.394" style="fill:none;stroke:black;stroke-width:3.8px;"/>
        </g>
        <g transform="matrix(0.603682,0,0,-0.84452,254.342652,5420.839211)">
            <path d="M645.333,2932.708C681.735,2932.708 694.869,2932.945 719.637,2958.394" style="fill:none;stroke:black;stroke-width:3.8px;"/>
        </g>
        <g transform="matrix(-0.603682,0,0,0.84452,1018.350086,466.796502)">
            <path d="M645.333,2932.708C681.735,2932.708 694.869,2932.945 719.637,2958.394" style="fill:none;stroke:black;stroke-width:3.8px;"/>
        </g>
        <g transform="matrix(-0.603682,0,0,-0.84452,1018.350086,5420.839211)">
            <path d="M645.333,2932.708C681.735,2932.708 694.869,2932.945 719.637,2958.394" style="fill:none;stroke:black;stroke-width:3.8px;"/>
        </g>
    </g>
    <g transform="matrix(-1.054968,1.054968,-1.054968,-1.054968,4089.055835,3120.796946)">
        <g transform="matrix(0.815803,0,0,0.84452,200.570148,391.589137)">
            <path d="M543.065,3004.826L509.291,3038.6" style="fill:none;stroke:black;stroke-width:3.36px;"/>
        </g>
        <g transform="matrix(0.815803,0,0,0.84452,214.105153,391.589137)">
            <path d="M543.065,3004.826L509.291,3038.6" style="fill:none;stroke:black;stroke-width:3.36px;"/>
        </g>
        <g transform="matrix(0.603682,0,0,0.84452,254.342652,466.796502)">
            <path d="M645.333,2932.708C681.735,2932.708 694.869,2932.945 719.637,2958.394" style="fill:none;stroke:black;stroke-width:3.8px;"/>
        </g>
        <g transform="matrix(0.603682,0,0,-0.84452,254.342652,5420.839211)">
            <path d="M645.333,2932.708C681.735,2932.708 694.869,2932.945 719.637,2958.394" style="fill:none;stroke:black;stroke-width:3.8px;"/>
        </g>
        <g transform="matrix(-0.603682,0,0,0.84452,1018.350086,466.796502)">
            <path d="M645.333,2932.708C681.735,2932.708 694.869,2932.945 719.637,2958.394" style="fill:none;stroke:black;stroke-width:3.8px;"/>
        </g>
        <g transform="matrix(-0.603682,0,0,-0.84452,1018.350086,5420.839211)">
            <path d="M645.333,2932.708C681.735,2932.708 694.869,2932.945 719.637,2958.394" style="fill:none;stroke:black;stroke-width:3.8px;"/>
        </g>
    </g>
    <g transform="matrix(1.054968,1.054968,-1.054968,1.054968,3126.370706,-3090.472882)">
        <g transform="matrix(0.815803,0,0,0.84452,200.570148,391.589137)">
            <path d="M543.065,3004.826L509.291,3038.6" style="fill:none;stroke:black;stroke-width:3.36px;"/>
        </g>
        <g transform="matrix(0.815803,0,0,0.84452,214.105153,391.589137)">
            <path d="M543.065,3004.826L509.291,3038.6" style="fill:none;stroke:black;stroke-width:3.36px;"/>
        </g>
        <g transform="matrix(0.603682,0,0,0.84452,254.342652,466.796502)">
            <path d="M645.333,2932.708C681.735,2932.708 694.869,2932.945 719.637,2958.394" style="fill:none;stroke:black;stroke-width:3.8px;"/>
        </g>
        <g transform="matrix(0.603682,0,0,-0.84452,254.342652,5420.839211)">
            <path d="M645.333,2932.708C681.735,2932.708 694.869,2932.945 719.637,2958.394" style="fill:none;stroke:black;stroke-width:3.8px;"/>
        </g>
        <g transform="matrix(-0.603682,0,0,0.84452,1018.350086,466.796502)">
            <path d="M645.333,2932.708C681.735,2932.708 694.869,2932.945 719.637,2958.394" style="fill:none;stroke:black;stroke-width:3.8px;"/>
        </g>
        <g transform="matrix(-0.603682,0,0,-0.84452,1018.350086,5420.839211)">
            <path d="M645.333,2932.708C681.735,2932.708 694.869,2932.945 719.637,2958.394" style="fill:none;stroke:black;stroke-width:3.8px;"/>
        </g>
    </g>
    <g transform="matrix(1.054968,1.054968,-1.054968,1.054968,2751.965643,-3464.877945)">
        <g transform="matrix(0.815803,0,0,0.84452,200.570148,391.589137)">
            <path d="M543.065,3004.826L509.291,3038.6" style="fill:none;stroke:black;stroke-width:3.36px;"/>
        </g>
        <g transform="matrix(0.815803,0,0,0.84452,214.105153,391.589137)">
            <path d="M543.065,3004.826L509.291,3038.6" style="fill:none;stroke:black;stroke-width:3.36px;"/>
        </g>
        <g transform="matrix(0.603682,0,0,0.84452,254.342652,466.796502)">
            <path d="M645.333,2932.708C681.735,2932.708 694.869,2932.945 719.637,2958.394" style="fill:none;stroke:black;stroke-width:3.8px;"/>
        </g>
        <g transform="matrix(0.603682,0,0,-0.84452,254.342652,5420.839211)">
            <path d="M645.333,2932.708C681.735,2932.708 694.869,2932.945 719.637,2958.394" style="fill:none;stroke:black;stroke-width:3.8px;"/>
        </g>
        <g transform="matrix(-0.603682,0,0,0.84452,1018.350086,466.796502)">
            <path d="M645.333,2932.708C681.735,2932.708 694.869,2932.945 719.637,2958.394" style="fill:none;stroke:black;stroke-width:3.8px;"/>
        </g>
        <g transform="matrix(-0.603682,0,0,-0.84452,1018.350086,5420.839211)">
            <path d="M645.333,2932.708C681.735,2932.708 694.869,2932.945 719.637,2958.394" style="fill:none;stroke:black;stroke-width:3.8px;"/>
        </g>
    </g>
    <g>
        <g transform="matrix(0.995495,0.004505,0.004505,0.995495,-2.755026,2.755026)">
            <path d="M142.405,649.065L100.189,710.207" style="fill:none;stroke:black;stroke-width:4.17px;"/>
        </g>
        <g transform="matrix(0.995495,0.004505,0.004505,0.995495,-2.755026,2.755026)">
            <path d="M172.883,706.628L100.189,710.207" style="fill:none;stroke:black;stroke-width:4.17px;"/>
        </g>
        <g transform="matrix(0.995495,0.004505,0.004505,0.995495,-2.755026,2.755026)">
            <path d="M172.883,706.628L142.599,777.106" style="fill:none;stroke:black;stroke-width:4.17px;"/>
        </g>
        <g transform="matrix(0.995495,0.004505,0.004505,0.995495,-2.755026,2.755026)">
            <path d="M213.338,759.568L142.599,777.106" style="fill:none;stroke:black;stroke-width:4.17px;"/>
        </g>
        <g transform="matrix(0.995495,0.004505,0.004505,0.995495,-2.755026,2.755026)">
            <path d="M213.338,759.568L190.662,829.431" style="fill:none;stroke:black;stroke-width:4.17px;"/>
        </g>
        <g transform="matrix(0.995495,0.004505,0.004505,0.995495,-2.755026,2.755026)">
            <path d="M260.881,803.835L190.662,829.431" style="fill:none;stroke:black;stroke-width:4.17px;"/>
        </g>
        <g transform="matrix(0.995495,0.004505,0.004505,0.995495,-2.755026,2.755026)">
            <path d="M260.881,803.835L244.388,873.407" style="fill:none;stroke:black;stroke-width:4.17px;"/>
        </g>
        <g transform="matrix(0.995495,0.004505,0.004505,0.995495,-2.755026,2.755026)">
            <path d="M307.708,834.782L244.388,873.407" style="fill:none;stroke:black;stroke-width:4.17px;"/>
        </g>
        <g transform="matrix(0.995495,0.004505,0.004505,0.995495,-2.755026,2.755026)">
            <path d="M307.708,834.782L305.174,906.565" style="fill:none;stroke:black;stroke-width:4.17px;"/>
        </g>
        <g transform="matrix(0.995495,0.004505,0.004505,0.995495,-2.755026,2.755026)">
            <path d="M365.769,862.915L305.174,906.565" style="fill:none;stroke:black;stroke-width:4.17px;"/>
        </g>
    </g>
    <g transform="matrix(0.012698,-0.999919,0.999919,0.012698,-5.276185,992.893071)">
        <g transform="matrix(0.995495,0.004505,0.004505,0.995495,-2.755026,2.755026)">
            <path d="M142.405,649.065L100.189,710.207" style="fill:none;stroke:black;stroke-width:4.17px;"/>
        </g>
        <g transform="matrix(0.995495,0.004505,0.004505,0.995495,-2.755026,2.755026)">
            <path d="M172.883,706.628L100.189,710.207" style="fill:none;stroke:black;stroke-width:4.17px;"/>
        </g>
        <g transform="matrix(0.995495,0.004505,0.004505,0.995495,-2.755026,2.755026)">
            <path d="M172.883,706.628L142.599,777.106" style="fill:none;stroke:black;stroke-width:4.17px;"/>
        </g>
        <g transform="matrix(0.995495,0.004505,0.004505,0.995495,-2.755026,2.755026)">
            <path d="M213.338,759.568L142.599,777.106" style="fill:none;stroke:black;stroke-width:4.17px;"/>
        </g>
        <g transform="matrix(0.995495,0.004505,0.004505,0.995495,-2.755026,2.755026)">
            <path d="M213.338,759.568L190.662,829.431" style="fill:none;stroke:black;stroke-width:4.17px;"/>
        </g>
        <g transform="matrix(0.995495,0.004505,0.004505,0.995495,-2.755026,2.755026)">
            <path d="M260.881,803.835L190.662,829.431" style="fill:none;stroke:black;stroke-width:4.17px;"/>
        </g>
        <g transform="matrix(0.995495,0.004505,0.004505,0.995495,-2.755026,2.755026)">
            <path d="M260.881,803.835L244.388,873.407" style="fill:none;stroke:black;stroke-width:4.17px;"/>
        </g>
        <g transform="matrix(0.995495,0.004505,0.004505,0.995495,-2.755026,2.755026)">
            <path d="M307.708,834.782L244.388,873.407" style="fill:none;stroke:black;stroke-width:4.17px;"/>
        </g>
        <g transform="matrix(0.995495,0.004505,0.004505,0.995495,-2.755026,2.755026)">
            <path d="M307.708,834.782L305.174,906.565" style="fill:none;stroke:black;stroke-width:4.17px;"/>
        </g>
        <g transform="matrix(0.995495,0.004505,0.004505,0.995495,-2.755026,2.755026)">
            <path d="M365.769,862.915L305.174,906.565" style="fill:none;stroke:black;stroke-width:4.17px;"/>
        </g>
    </g>
    <g transform="matrix(1,0,0,-1,0,1000.245031)">
        <g transform="matrix(0.995495,0.004505,0.004505,0.995495,-2.755026,2.755026)">
            <path d="M142.405,649.065L100.189,710.207" style="fill:none;stroke:black;stroke-width:4.17px;"/>
        </g>
        <g transform="matrix(0.995495,0.004505,0.004505,0.995495,-2.755026,2.755026)">
            <path d="M172.883,706.628L100.189,710.207" style="fill:none;stroke:black;stroke-width:4.17px;"/>
        </g>
        <g transform="matrix(0.995495,0.004505,0.004505,0.995495,-2.755026,2.755026)">
            <path d="M172.883,706.628L142.599,777.106" style="fill:none;stroke:black;stroke-width:4.17px;"/>
        </g>
        <g transform="matrix(0.995495,0.004505,0.004505,0.995495,-2.755026,2.755026)">
            <path d="M213.338,759.568L142.599,777.106" style="fill:none;stroke:black;stroke-width:4.17px;"/>
        </g>
        <g transform="matrix(0.995495,0.004505,0.004505,0.995495,-2.755026,2.755026)">
            <path d="M213.338,759.568L190.662,829.431" style="fill:none;stroke:black;stroke-width:4.17px;"/>
        </g>
        <g transform="matrix(0.995495,0.004505,0.004505,0.995495,-2.755026,2.755026)">
            <path d="M260.881,803.835L190.662,829.431" style="fill:none;stroke:black;stroke-width:4.17px;"/>
        </g>
        <g transform="matrix(0.995495,0.004505,0.004505,0.995495,-2.755026,2.755026)">
            <path d="M260.881,803.835L244.388,873.407" style="fill:none;stroke:black;stroke-width:4.17px;"/>
        </g>
        <g transform="matrix(0.995495,0.004505,0.004505,0.995495,-2.755026,2.755026)">
            <path d="M307.708,834.782L244.388,873.407" style="fill:none;stroke:black;stroke-width:4.17px;"/>
        </g>
        <g transform="matrix(0.995495,0.004505,0.004505,0.995495,-2.755026,2.755026)">
            <path d="M307.708,834.782L305.174,906.565" style="fill:none;stroke:black;stroke-width:4.17px;"/>
        </g>
        <g transform="matrix(0.995495,0.004505,0.004505,0.995495,-2.755026,2.755026)">
            <path d="M365.769,862.915L305.174,906.565" style="fill:none;stroke:black;stroke-width:4.17px;"/>
        </g>
    </g>
    <g transform="matrix(0.012698,0.999919,0.999919,-0.012698,-5.276185,7.351959)">
        <g transform="matrix(0.995495,0.004505,0.004505,0.995495,-2.755026,2.755026)">
            <path d="M142.405,649.065L100.189,710.207" style="fill:none;stroke:black;stroke-width:4.17px;"/>
        </g>
        <g transform="matrix(0.995495,0.004505,0.004505,0.995495,-2.755026,2.755026)">
            <path d="M172.883,706.628L100.189,710.207" style="fill:none;stroke:black;stroke-width:4.17px;"/>
        </g>
        <g transform="matrix(0.995495,0.004505,0.004505,0.995495,-2.755026,2.755026)">
            <path d="M172.883,706.628L142.599,777.106" style="fill:none;stroke:black;stroke-width:4.17px;"/>
        </g>
        <g transform="matrix(0.995495,0.004505,0.004505,0.995495,-2.755026,2.755026)">
            <path d="M213.338,759.568L142.599,777.106" style="fill:none;stroke:black;stroke-width:4.17px;"/>
        </g>
        <g transform="matrix(0.995495,0.004505,0.004505,0.995495,-2.755026,2.755026)">
            <path d="M213.338,759.568L190.662,829.431" style="fill:none;stroke:black;stroke-width:4.17px;"/>
        </g>
        <g transform="matrix(0.995495,0.004505,0.004505,0.995495,-2.755026,2.755026)">
            <path d="M260.881,803.835L190.662,829.431" style="fill:none;stroke:black;stroke-width:4.17px;"/>
        </g>
        <g transform="matrix(0.995495,0.004505,0.004505,0.995495,-2.755026,2.755026)">
            <path d="M260.881,803.835L244.388,873.407" style="fill:none;stroke:black;stroke-width:4.17px;"/>
        </g>
        <g transform="matrix(0.995495,0.004505,0.004505,0.995495,-2.755026,2.755026)">
            <path d="M307.708,834.782L244.388,873.407" style="fill:none;stroke:black;stroke-width:4.17px;"/>
        </g>
        <g transform="matrix(0.995495,0.004505,0.004505,0.995495,-2.755026,2.755026)">
            <path d="M307.708,834.782L305.174,906.565" style="fill:none;stroke:black;stroke-width:4.17px;"/>
        </g>
        <g transform="matrix(0.995495,0.004505,0.004505,0.995495,-2.755026,2.755026)">
            <path d="M365.769,862.915L305.174,906.565" style="fill:none;stroke:black;stroke-width:4.17px;"/>
        </g>
    </g>
</svg>
