<?xml version="1.0" encoding="UTF-8" standalone="no"?>
<!DOCTYPE svg PUBLIC "-//W3C//DTD SVG 1.1//EN" "http://www.w3.org/Graphics/SVG/1.1/DTD/svg11.dtd">
<svg width="100%" height="100%" viewBox="0 0 1000 1000" version="1.1" xmlns="http://www.w3.org/2000/svg" xmlns:xlink="http://www.w3.org/1999/xlink" xml:space="preserve" xmlns:serif="http://www.serif.com/" style="fill-rule:evenodd;clip-rule:evenodd;stroke-linecap:round;stroke-linejoin:round;stroke-miterlimit:1.5;">
    <g transform="matrix(0.95574,0,0,0.95574,-2.922148,-2.922148)">
        <circle cx="526.212" cy="526.212" r="473.788" style="fill:white;fill-opacity:0;stroke:black;stroke-width:4.36px;"/>
    </g>
    <g transform="matrix(0.816044,0,0,0.816044,70.587457,70.587457)">
        <circle cx="526.212" cy="526.212" r="473.788" style="fill:white;fill-opacity:0;stroke:black;stroke-width:5.11px;"/>
    </g>
    <g transform="matrix(1,0,0,1,-1983.034582,-2350.617354)">
        <g transform="matrix(1,0,0,1,1982.308552,787.438447)">
            <path d="M497.383,1923.843C497.383,1923.843 467.534,1947.129 467.534,2000C467.534,2052.871 533.793,2060.958 533.793,2128.381C533.793,2166.44 497.383,2202.515 497.383,2202.515" style="fill:none;stroke:black;stroke-width:4.17px;"/>
            <g transform="matrix(1.238078,0,0,1.238078,-107.183679,-505.034158)">
                <path d="M553.063,2017.513C553.063,2017.513 552.039,2003.151 538.774,2003.281C535.3,2003.315 529.754,2006.103 524.607,2012.203C505.532,2034.815 475.313,2070.45 457.161,2090.898C452.115,2096.582 446.538,2098.837 443.206,2098.849C428.098,2098.907 428.864,2084.671 428.864,2084.671" style="fill:none;stroke:black;stroke-width:3.37px;"/>
            </g>
            <g transform="matrix(1.238078,0,0,1.238078,-107.183679,-455.605986)">
                <path d="M553.063,2017.513C553.063,2017.513 552.039,2003.151 538.774,2003.281C535.3,2003.315 529.754,2006.103 524.607,2012.203C505.532,2034.815 475.313,2070.45 457.161,2090.898C452.115,2096.582 446.538,2098.837 443.206,2098.849C428.098,2098.907 428.864,2084.671 428.864,2084.671" style="fill:none;stroke:black;stroke-width:3.37px;"/>
            </g>
        </g>
        <g>
            <g transform="matrix(-1,-0,0,-1,3935.498881,3640.321042)">
                <path d="M1375.536,739.548L1375.536,798.075" style="fill:none;stroke:black;stroke-width:4.17px;"/>
            </g>
            <g transform="matrix(0.987191,0.159546,0.159546,-0.987191,1082.85561,3414.46785)">
                <path d="M1337.637,768.812L1355.228,798.075" style="fill:none;stroke:black;stroke-width:4.17px;"/>
            </g>
            <g transform="matrix(-0.987191,0.159546,-0.159546,-0.987191,4037.11565,3414.46785)">
                <path d="M1337.637,768.812L1355.228,798.075" style="fill:none;stroke:black;stroke-width:4.17px;"/>
            </g>
        </g>
        <g transform="matrix(-1,0,-0,-1,4966.069164,5692.863656)">
            <g transform="matrix(-1,-0,0,-1,3935.498881,3640.321042)">
                <path d="M1375.536,739.548L1375.536,798.075" style="fill:none;stroke:black;stroke-width:4.17px;"/>
            </g>
            <g transform="matrix(0.987191,0.159546,0.159546,-0.987191,1082.85561,3414.46785)">
                <path d="M1337.637,768.812L1355.228,798.075" style="fill:none;stroke:black;stroke-width:4.17px;"/>
            </g>
            <g transform="matrix(-0.987191,0.159546,-0.159546,-0.987191,4037.11565,3414.46785)">
                <path d="M1337.637,768.812L1355.228,798.075" style="fill:none;stroke:black;stroke-width:4.17px;"/>
            </g>
        </g>
    </g>
    <g transform="matrix(0.949571,-0.313552,0.313552,0.949571,-604.123111,-1670.432419)">
        <g transform="matrix(0,0.85626,-0.85626,0,2722.903538,2096.388294)">
            <path d="M535.346,2554.783L630.715,2554.783" style="fill:none;stroke:black;stroke-width:4.87px;"/>
        </g>
        <g transform="matrix(0.85626,0,0,0.85626,76.950739,367.225286)">
            <path d="M535.346,2554.783L630.715,2554.783" style="fill:none;stroke:black;stroke-width:4.87px;"/>
        </g>
        <g transform="matrix(-0.425815,0.425815,-0.707107,-0.707107,2623.831602,4146.742693)">
            <path d="M535.346,2554.783L630.715,2554.783" style="fill:none;stroke:black;stroke-width:5.05px;"/>
        </g>
        <g transform="matrix(-0.707107,0.707107,-0.707107,-0.707107,2963.949007,4014.341799)">
            <g transform="matrix(0,0.193642,-0.321561,-0,1506.737048,2554.768254)">
                <path d="M535.346,2554.783L630.715,2554.783" style="fill:none;stroke:black;stroke-width:15.7px;"/>
            </g>
            <g transform="matrix(0.602194,-0,-0,1,334.915608,127.725252)">
                <path d="M542.068,2564.027C542.068,2564.027 544.348,2560.782 551.484,2557.021C558.019,2553.578 567.851,2550.279 581.539,2550.279C609.066,2550.279 621.248,2563.644 621.248,2563.644" style="fill:none;stroke:black;stroke-width:5.05px;"/>
            </g>
        </g>
    </g>
    <g transform="matrix(-0.979312,-0.202359,-0.202359,0.979312,1368.090001,-1799.235043)">
        <g transform="matrix(0,0.85626,-0.85626,0,2722.903538,2096.388294)">
            <path d="M535.346,2554.783L630.715,2554.783" style="fill:none;stroke:black;stroke-width:4.87px;"/>
        </g>
        <g transform="matrix(0.85626,0,0,0.85626,76.950739,367.225286)">
            <path d="M535.346,2554.783L630.715,2554.783" style="fill:none;stroke:black;stroke-width:4.87px;"/>
        </g>
        <g transform="matrix(-0.425815,0.425815,-0.707107,-0.707107,2623.831602,4146.742693)">
            <path d="M535.346,2554.783L630.715,2554.783" style="fill:none;stroke:black;stroke-width:5.05px;"/>
        </g>
        <g transform="matrix(-0.707107,0.707107,-0.707107,-0.707107,2963.949007,4014.341799)">
            <g transform="matrix(0,0.193642,-0.321561,-0,1506.737048,2554.768254)">
                <path d="M535.346,2554.783L630.715,2554.783" style="fill:none;stroke:black;stroke-width:15.7px;"/>
            </g>
            <g transform="matrix(0.602194,-0,-0,1,334.915608,127.725252)">
                <path d="M542.068,2564.027C542.068,2564.027 544.348,2560.782 551.484,2557.021C558.019,2553.578 567.851,2550.279 581.539,2550.279C609.066,2550.279 621.248,2563.644 621.248,2563.644" style="fill:none;stroke:black;stroke-width:5.05px;"/>
            </g>
        </g>
    </g>
    <g transform="matrix(0.707107,-0.707107,-0.707107,-0.707107,1927.95799,2468.471332)">
        <g transform="matrix(0,0.85626,-0.85626,0,2722.903538,2096.388294)">
            <path d="M535.346,2554.783L630.715,2554.783" style="fill:none;stroke:black;stroke-width:4.87px;"/>
        </g>
        <g transform="matrix(0.85626,0,0,0.85626,76.950739,367.225286)">
            <path d="M535.346,2554.783L630.715,2554.783" style="fill:none;stroke:black;stroke-width:4.87px;"/>
        </g>
        <g transform="matrix(-0.425815,0.425815,-0.707107,-0.707107,2623.831602,4146.742693)">
            <path d="M535.346,2554.783L630.715,2554.783" style="fill:none;stroke:black;stroke-width:5.05px;"/>
        </g>
        <g transform="matrix(-0.707107,0.707107,-0.707107,-0.707107,2963.949007,4014.341799)">
            <g transform="matrix(0,0.193642,-0.321561,-0,1506.737048,2554.768254)">
                <path d="M535.346,2554.783L630.715,2554.783" style="fill:none;stroke:black;stroke-width:15.7px;"/>
            </g>
            <g transform="matrix(0.602194,-0,-0,1,334.915608,127.725252)">
                <path d="M542.068,2564.027C542.068,2564.027 544.348,2560.782 551.484,2557.021C558.019,2553.578 567.851,2550.279 581.539,2550.279C609.066,2550.279 621.248,2563.644 621.248,2563.644" style="fill:none;stroke:black;stroke-width:5.05px;"/>
            </g>
        </g>
    </g>
    <g transform="matrix(0.778741,0,0,0.778741,87.533388,-14.104267)">
        <g transform="matrix(0,-1,1,0,-2544.931168,1032.877497)">
            <g transform="matrix(1.194054,0,0,1.194054,-169.080416,-537.203663)">
                <path d="M501.382,2768.32L683.662,2768.32" style="fill:none;stroke:black;stroke-width:4.48px;"/>
            </g>
            <g transform="matrix(1,0,-0,1,-32.024151,0.322726)">
                <path d="M666.205,2751.359L682.843,2767.997" style="fill:none;stroke:black;stroke-width:5.35px;"/>
            </g>
            <g transform="matrix(1,0,-0,1,-251.269252,0.322726)">
                <path d="M666.205,2751.359L682.843,2767.997" style="fill:none;stroke:black;stroke-width:5.35px;"/>
            </g>
            <g transform="matrix(1,0,-0,1,-234.819129,0.322726)">
                <path d="M666.205,2751.359L682.843,2767.997" style="fill:none;stroke:black;stroke-width:5.35px;"/>
            </g>
            <g transform="matrix(1,0,0,1,-120.105493,0)">
                <g transform="matrix(1,0,-0,1,-98.075322,0.322726)">
                    <path d="M666.205,2751.359L682.843,2767.997" style="fill:none;stroke:black;stroke-width:5.35px;"/>
                </g>
                <g transform="matrix(1,-0,-0,-1,-98.075322,5536.317274)">
                    <path d="M666.205,2751.359L682.843,2767.997" style="fill:none;stroke:black;stroke-width:5.35px;"/>
                </g>
            </g>
            <g transform="matrix(1,-0,-0,-1,-32.024151,5536.317274)">
                <path d="M666.205,2751.359L682.843,2767.997" style="fill:none;stroke:black;stroke-width:5.35px;"/>
            </g>
            <g transform="matrix(1,-0,-0,-1,-251.269252,5536.317274)">
                <path d="M666.205,2751.359L682.843,2767.997" style="fill:none;stroke:black;stroke-width:5.35px;"/>
            </g>
            <g transform="matrix(1,-0,-0,-1,-234.819129,5536.317274)">
                <path d="M666.205,2751.359L682.843,2767.997" style="fill:none;stroke:black;stroke-width:5.35px;"/>
            </g>
        </g>
        <g transform="matrix(1,0,0,1,-1095.819611,-1499.985988)">
            <g transform="matrix(1,0,0,1,-13.296186,951.429808)">
                <path d="M1300.082,967.545C1300.082,967.545 1312.943,998.689 1312.943,1047.178C1312.943,1103.673 1300.082,1128.386 1300.082,1128.386" style="fill:none;stroke:black;stroke-width:5.35px;"/>
            </g>
            <g transform="matrix(-1,0,0,1,2651.713073,951.429808)">
                <path d="M1300.082,967.545C1300.082,967.545 1312.943,998.689 1312.943,1047.178C1312.943,1103.673 1300.082,1128.386 1300.082,1128.386" style="fill:none;stroke:black;stroke-width:5.35px;"/>
            </g>
        </g>
    </g>
    <g transform="matrix(0.778741,0,0,0.778741,564.542415,-14.104267)">
        <g transform="matrix(0,-1,1,0,-2544.931168,1032.877497)">
            <g transform="matrix(1.194054,0,0,1.194054,-169.080416,-537.203663)">
                <path d="M501.382,2768.32L683.662,2768.32" style="fill:none;stroke:black;stroke-width:4.48px;"/>
            </g>
            <g transform="matrix(1,0,-0,1,-32.024151,0.322726)">
                <path d="M666.205,2751.359L682.843,2767.997" style="fill:none;stroke:black;stroke-width:5.35px;"/>
            </g>
            <g transform="matrix(1,0,-0,1,-251.269252,0.322726)">
                <path d="M666.205,2751.359L682.843,2767.997" style="fill:none;stroke:black;stroke-width:5.35px;"/>
            </g>
            <g transform="matrix(1,0,-0,1,-234.819129,0.322726)">
                <path d="M666.205,2751.359L682.843,2767.997" style="fill:none;stroke:black;stroke-width:5.35px;"/>
            </g>
            <g transform="matrix(1,0,0,1,-120.105493,0)">
                <g transform="matrix(1,0,-0,1,-98.075322,0.322726)">
                    <path d="M666.205,2751.359L682.843,2767.997" style="fill:none;stroke:black;stroke-width:5.35px;"/>
                </g>
                <g transform="matrix(1,-0,-0,-1,-98.075322,5536.317274)">
                    <path d="M666.205,2751.359L682.843,2767.997" style="fill:none;stroke:black;stroke-width:5.35px;"/>
                </g>
            </g>
            <g transform="matrix(1,-0,-0,-1,-32.024151,5536.317274)">
                <path d="M666.205,2751.359L682.843,2767.997" style="fill:none;stroke:black;stroke-width:5.35px;"/>
            </g>
            <g transform="matrix(1,-0,-0,-1,-251.269252,5536.317274)">
                <path d="M666.205,2751.359L682.843,2767.997" style="fill:none;stroke:black;stroke-width:5.35px;"/>
            </g>
            <g transform="matrix(1,-0,-0,-1,-234.819129,5536.317274)">
                <path d="M666.205,2751.359L682.843,2767.997" style="fill:none;stroke:black;stroke-width:5.35px;"/>
            </g>
        </g>
        <g transform="matrix(1,0,0,1,-1095.819611,-1499.985988)">
            <g transform="matrix(1,0,0,1,-13.296186,951.429808)">
                <path d="M1300.082,967.545C1300.082,967.545 1312.943,998.689 1312.943,1047.178C1312.943,1103.673 1300.082,1128.386 1300.082,1128.386" style="fill:none;stroke:black;stroke-width:5.35px;"/>
            </g>
            <g transform="matrix(-1,0,0,1,2651.713073,951.429808)">
                <path d="M1300.082,967.545C1300.082,967.545 1312.943,998.689 1312.943,1047.178C1312.943,1103.673 1300.082,1128.386 1300.082,1128.386" style="fill:none;stroke:black;stroke-width:5.35px;"/>
            </g>
        </g>
    </g>
    <g transform="matrix(0.778741,0,0,0.778741,326.037901,380.998196)">
        <g transform="matrix(0,-1,1,0,-2544.931168,1032.877497)">
            <g transform="matrix(1.194054,0,0,1.194054,-169.080416,-537.203663)">
                <path d="M501.382,2768.32L683.662,2768.32" style="fill:none;stroke:black;stroke-width:4.48px;"/>
            </g>
            <g transform="matrix(1,0,-0,1,-32.024151,0.322726)">
                <path d="M666.205,2751.359L682.843,2767.997" style="fill:none;stroke:black;stroke-width:5.35px;"/>
            </g>
            <g transform="matrix(1,0,-0,1,-251.269252,0.322726)">
                <path d="M666.205,2751.359L682.843,2767.997" style="fill:none;stroke:black;stroke-width:5.35px;"/>
            </g>
            <g transform="matrix(1,0,-0,1,-234.819129,0.322726)">
                <path d="M666.205,2751.359L682.843,2767.997" style="fill:none;stroke:black;stroke-width:5.35px;"/>
            </g>
            <g transform="matrix(1,0,0,1,-120.105493,0)">
                <g transform="matrix(1,0,-0,1,-98.075322,0.322726)">
                    <path d="M666.205,2751.359L682.843,2767.997" style="fill:none;stroke:black;stroke-width:5.35px;"/>
                </g>
                <g transform="matrix(1,-0,-0,-1,-98.075322,5536.317274)">
                    <path d="M666.205,2751.359L682.843,2767.997" style="fill:none;stroke:black;stroke-width:5.35px;"/>
                </g>
            </g>
            <g transform="matrix(1,-0,-0,-1,-32.024151,5536.317274)">
                <path d="M666.205,2751.359L682.843,2767.997" style="fill:none;stroke:black;stroke-width:5.35px;"/>
            </g>
            <g transform="matrix(1,-0,-0,-1,-251.269252,5536.317274)">
                <path d="M666.205,2751.359L682.843,2767.997" style="fill:none;stroke:black;stroke-width:5.35px;"/>
            </g>
            <g transform="matrix(1,-0,-0,-1,-234.819129,5536.317274)">
                <path d="M666.205,2751.359L682.843,2767.997" style="fill:none;stroke:black;stroke-width:5.35px;"/>
            </g>
        </g>
        <g transform="matrix(1,0,0,1,-1095.819611,-1499.985988)">
            <g transform="matrix(1,0,0,1,-13.296186,951.429808)">
                <path d="M1300.082,967.545C1300.082,967.545 1312.943,998.689 1312.943,1047.178C1312.943,1103.673 1300.082,1128.386 1300.082,1128.386" style="fill:none;stroke:black;stroke-width:5.35px;"/>
            </g>
            <g transform="matrix(-1,0,0,1,2651.713073,951.429808)">
                <path d="M1300.082,967.545C1300.082,967.545 1312.943,998.689 1312.943,1047.178C1312.943,1103.673 1300.082,1128.386 1300.082,1128.386" style="fill:none;stroke:black;stroke-width:5.35px;"/>
            </g>
        </g>
    </g>
    <g transform="matrix(0.884841,0,0,0.884841,236.068079,-2217.8486)">
        <g transform="matrix(1.996277,0,0,1.996277,-2191.733768,1646.708669)">
            <circle cx="1246.763" cy="477.27" r="4.103" style="stroke:black;stroke-width:2.36px;"/>
        </g>
        <path d="M136.717,2625.989C136.717,2625.989 179.187,2580.211 210.479,2580.211C247.983,2580.211 257.911,2625.989 295.415,2625.989C332.919,2625.989 346.912,2580.763 379.248,2580.763C411.585,2580.763 457.586,2625.989 457.586,2625.989" style="fill:none;stroke:black;stroke-width:4.71px;"/>
    </g>
    <g transform="matrix(0.884841,0,0,-0.884841,237.068079,3218.341757)">
        <g transform="matrix(1.996277,0,0,1.996277,-2191.733768,1646.708669)">
            <circle cx="1246.763" cy="477.27" r="4.103" style="stroke:black;stroke-width:2.36px;"/>
        </g>
        <path d="M136.717,2625.989C136.717,2625.989 179.187,2580.211 210.479,2580.211C247.983,2580.211 257.911,2625.989 295.415,2625.989C332.919,2625.989 346.912,2580.763 379.248,2580.763C411.585,2580.763 457.586,2625.989 457.586,2625.989" style="fill:none;stroke:black;stroke-width:4.71px;"/>
    </g>
    <g transform="matrix(0,-0.884841,-0.884841,-0,3218.014994,762.965214)">
        <g transform="matrix(1.996277,0,0,1.996277,-2191.733768,1646.708669)">
            <circle cx="1246.763" cy="477.27" r="4.103" style="stroke:black;stroke-width:2.36px;"/>
        </g>
        <path d="M136.717,2625.989C136.717,2625.989 179.187,2580.211 210.479,2580.211C247.983,2580.211 257.911,2625.989 295.415,2625.989C332.919,2625.989 346.912,2580.763 379.248,2580.763C411.585,2580.763 457.586,2625.989 457.586,2625.989" style="fill:none;stroke:black;stroke-width:4.71px;"/>
    </g>
    <g transform="matrix(-0,0.884841,0.884841,0,-2219.062768,237.101372)">
        <g transform="matrix(1.996277,0,0,1.996277,-2191.733768,1646.708669)">
            <circle cx="1246.763" cy="477.27" r="4.103" style="stroke:black;stroke-width:2.36px;"/>
        </g>
        <path d="M136.717,2625.989C136.717,2625.989 179.187,2580.211 210.479,2580.211C247.983,2580.211 257.911,2625.989 295.415,2625.989C332.919,2625.989 346.912,2580.763 379.248,2580.763C411.585,2580.763 457.586,2625.989 457.586,2625.989" style="fill:none;stroke:black;stroke-width:4.71px;"/>
    </g>
    <g transform="matrix(0.218758,-0.218758,0.218758,0.218758,-141.613334,70.330248)">
        <circle cx="483.042" cy="1090.387" r="56.116" style="fill-opacity:0;stroke:black;stroke-width:13.47px;"/>
        <g transform="matrix(0.634832,0,0,1,173.949041,0)">
            <path d="M486.89,1011.989C602.099,1011.989 695.634,1059.416 695.634,1090.387C695.634,1121.358 602.099,1146.503 486.89,1146.503" style="fill-opacity:0;stroke:black;stroke-width:16.08px;"/>
        </g>
        <g transform="matrix(-0.634832,-0,-0,-1,793.699499,2180.773943)">
            <path d="M486.89,1011.989C602.099,1011.989 695.634,1059.416 695.634,1090.387C695.634,1121.358 602.099,1146.503 486.89,1146.503" style="fill-opacity:0;stroke:black;stroke-width:16.08px;"/>
        </g>
        <g transform="matrix(1,0,0,1,-11.336257,-67.452562)">
            <circle cx="496.724" cy="1157.84" r="11.336" style="stroke:black;stroke-width:13.47px;"/>
        </g>
        <g transform="matrix(1.626667,0,0,1.626667,-339.44533,-683.309169)">
            <path d="M568.769,1090.387L605.417,1090.387" style="fill:none;stroke:black;stroke-width:8.28px;"/>
        </g>
        <g transform="matrix(1.626667,0,0,1.626667,-602.915575,-683.309169)">
            <path d="M568.769,1090.387L605.417,1090.387" style="fill:none;stroke:black;stroke-width:8.28px;"/>
        </g>
    </g>
    <g transform="matrix(0.218758,0.218758,-0.218758,0.218758,929.592943,-141.350232)">
        <circle cx="483.042" cy="1090.387" r="56.116" style="fill-opacity:0;stroke:black;stroke-width:13.47px;"/>
        <g transform="matrix(0.634832,0,0,1,173.949041,0)">
            <path d="M486.89,1011.989C602.099,1011.989 695.634,1059.416 695.634,1090.387C695.634,1121.358 602.099,1146.503 486.89,1146.503" style="fill-opacity:0;stroke:black;stroke-width:16.08px;"/>
        </g>
        <g transform="matrix(-0.634832,-0,-0,-1,793.699499,2180.773943)">
            <path d="M486.89,1011.989C602.099,1011.989 695.634,1059.416 695.634,1090.387C695.634,1121.358 602.099,1146.503 486.89,1146.503" style="fill-opacity:0;stroke:black;stroke-width:16.08px;"/>
        </g>
        <g transform="matrix(1,0,0,1,-11.336257,-67.452562)">
            <circle cx="496.724" cy="1157.84" r="11.336" style="stroke:black;stroke-width:13.47px;"/>
        </g>
        <g transform="matrix(1.626667,0,0,1.626667,-339.44533,-683.309169)">
            <path d="M568.769,1090.387L605.417,1090.387" style="fill:none;stroke:black;stroke-width:8.28px;"/>
        </g>
        <g transform="matrix(1.626667,0,0,1.626667,-602.915575,-683.309169)">
            <path d="M568.769,1090.387L605.417,1090.387" style="fill:none;stroke:black;stroke-width:8.28px;"/>
        </g>
    </g>
    <g transform="matrix(-0.218758,0.218758,-0.218758,-0.218758,1140.273423,929.948224)">
        <circle cx="483.042" cy="1090.387" r="56.116" style="fill-opacity:0;stroke:black;stroke-width:13.47px;"/>
        <g transform="matrix(0.634832,0,0,1,173.949041,0)">
            <path d="M486.89,1011.989C602.099,1011.989 695.634,1059.416 695.634,1090.387C695.634,1121.358 602.099,1146.503 486.89,1146.503" style="fill-opacity:0;stroke:black;stroke-width:16.08px;"/>
        </g>
        <g transform="matrix(-0.634832,-0,-0,-1,793.699499,2180.773943)">
            <path d="M486.89,1011.989C602.099,1011.989 695.634,1059.416 695.634,1090.387C695.634,1121.358 602.099,1146.503 486.89,1146.503" style="fill-opacity:0;stroke:black;stroke-width:16.08px;"/>
        </g>
        <g transform="matrix(1,0,0,1,-11.336257,-67.452562)">
            <circle cx="496.724" cy="1157.84" r="11.336" style="stroke:black;stroke-width:13.47px;"/>
        </g>
        <g transform="matrix(1.626667,0,0,1.626667,-339.44533,-683.309169)">
            <path d="M568.769,1090.387L605.417,1090.387" style="fill:none;stroke:black;stroke-width:8.28px;"/>
        </g>
        <g transform="matrix(1.626667,0,0,1.626667,-602.915575,-683.309169)">
            <path d="M568.769,1090.387L605.417,1090.387" style="fill:none;stroke:black;stroke-width:8.28px;"/>
        </g>
    </g>
    <g transform="matrix(-0.218758,-0.218758,0.218758,-0.218758,70.159325,1141.628704)">
        <circle cx="483.042" cy="1090.387" r="56.116" style="fill-opacity:0;stroke:black;stroke-width:13.47px;"/>
        <g transform="matrix(0.634832,0,0,1,173.949041,0)">
            <path d="M486.89,1011.989C602.099,1011.989 695.634,1059.416 695.634,1090.387C695.634,1121.358 602.099,1146.503 486.89,1146.503" style="fill-opacity:0;stroke:black;stroke-width:16.08px;"/>
        </g>
        <g transform="matrix(-0.634832,-0,-0,-1,793.699499,2180.773943)">
            <path d="M486.89,1011.989C602.099,1011.989 695.634,1059.416 695.634,1090.387C695.634,1121.358 602.099,1146.503 486.89,1146.503" style="fill-opacity:0;stroke:black;stroke-width:16.08px;"/>
        </g>
        <g transform="matrix(1,0,0,1,-11.336257,-67.452562)">
            <circle cx="496.724" cy="1157.84" r="11.336" style="stroke:black;stroke-width:13.47px;"/>
        </g>
        <g transform="matrix(1.626667,0,0,1.626667,-339.44533,-683.309169)">
            <path d="M568.769,1090.387L605.417,1090.387" style="fill:none;stroke:black;stroke-width:8.28px;"/>
        </g>
        <g transform="matrix(1.626667,0,0,1.626667,-602.915575,-683.309169)">
            <path d="M568.769,1090.387L605.417,1090.387" style="fill:none;stroke:black;stroke-width:8.28px;"/>
        </g>
    </g>
</svg>
